<mxfile host="65bd71144e">
    <diagram id="1csUOhej7IXeKtxR6tfC" name="Page-1">
        <mxGraphModel dx="1108" dy="818" grid="1" gridSize="10" guides="1" tooltips="1" connect="1" arrows="1" fold="1" page="1" pageScale="1" pageWidth="1169" pageHeight="1654" math="0" shadow="0">
            <root>
                <mxCell id="0"/>
                <mxCell id="1" parent="0"/>
                <mxCell id="2" value="" style="rounded=0;whiteSpace=wrap;html=1;" parent="1" vertex="1">
                    <mxGeometry x="90" y="285" width="210" height="100" as="geometry"/>
                </mxCell>
                <mxCell id="3" value="" style="rounded=0;whiteSpace=wrap;html=1;" parent="1" vertex="1">
                    <mxGeometry x="90" y="335" width="210" height="55" as="geometry"/>
                </mxCell>
                <mxCell id="4" value="obj1 = new&amp;nbsp; Object()" style="text;html=1;align=center;verticalAlign=middle;resizable=0;points=[];autosize=1;strokeColor=none;" parent="1" vertex="1">
                    <mxGeometry x="135" y="255" width="120" height="20" as="geometry"/>
                </mxCell>
                <mxCell id="6" value="obj1对象" style="text;html=1;strokeColor=none;fillColor=none;align=center;verticalAlign=middle;whiteSpace=wrap;rounded=0;" parent="1" vertex="1">
                    <mxGeometry x="167.5" y="295" width="55" height="20" as="geometry"/>
                </mxCell>
                <mxCell id="7" value="" style="rounded=0;whiteSpace=wrap;html=1;" parent="1" vertex="1">
                    <mxGeometry x="90" y="495" width="210" height="100" as="geometry"/>
                </mxCell>
                <mxCell id="8" value="" style="rounded=0;whiteSpace=wrap;html=1;" parent="1" vertex="1">
                    <mxGeometry x="90" y="545" width="210" height="50" as="geometry"/>
                </mxCell>
                <mxCell id="9" value="foo1 = new&amp;nbsp; Foo()" style="text;html=1;align=center;verticalAlign=middle;resizable=0;points=[];autosize=1;strokeColor=none;" parent="1" vertex="1">
                    <mxGeometry x="140" y="465" width="110" height="20" as="geometry"/>
                </mxCell>
                <mxCell id="10" value="foo1对象" style="text;html=1;strokeColor=none;fillColor=none;align=center;verticalAlign=middle;whiteSpace=wrap;rounded=0;" parent="1" vertex="1">
                    <mxGeometry x="167.5" y="505" width="55" height="20" as="geometry"/>
                </mxCell>
                <mxCell id="11" value="" style="rounded=0;whiteSpace=wrap;html=1;" parent="1" vertex="1">
                    <mxGeometry x="480" y="145" width="210" height="155" as="geometry"/>
                </mxCell>
                <mxCell id="12" value="" style="rounded=0;whiteSpace=wrap;html=1;" parent="1" vertex="1">
                    <mxGeometry x="480" y="249" width="210" height="50" as="geometry"/>
                </mxCell>
                <mxCell id="14" value="function&amp;nbsp; Function()" style="text;html=1;strokeColor=none;fillColor=none;align=center;verticalAlign=middle;whiteSpace=wrap;rounded=0;" parent="1" vertex="1">
                    <mxGeometry x="521.88" y="160" width="126.25" height="20" as="geometry"/>
                </mxCell>
                <mxCell id="17" value="" style="rounded=0;whiteSpace=wrap;html=1;" parent="1" vertex="1">
                    <mxGeometry x="480" y="198.5" width="210" height="50" as="geometry"/>
                </mxCell>
                <mxCell id="18" value="" style="rounded=0;whiteSpace=wrap;html=1;" parent="1" vertex="1">
                    <mxGeometry x="480" y="360" width="210" height="155" as="geometry"/>
                </mxCell>
                <mxCell id="19" value="" style="rounded=0;whiteSpace=wrap;html=1;" parent="1" vertex="1">
                    <mxGeometry x="480" y="464" width="210" height="50" as="geometry"/>
                </mxCell>
                <mxCell id="20" value="function&amp;nbsp; Object()" style="text;html=1;strokeColor=none;fillColor=none;align=center;verticalAlign=middle;whiteSpace=wrap;rounded=0;" parent="1" vertex="1">
                    <mxGeometry x="533.75" y="375" width="102.5" height="20" as="geometry"/>
                </mxCell>
                <mxCell id="21" value="" style="rounded=0;whiteSpace=wrap;html=1;" parent="1" vertex="1">
                    <mxGeometry x="480" y="413.5" width="210" height="50" as="geometry"/>
                </mxCell>
                <mxCell id="22" value="" style="rounded=0;whiteSpace=wrap;html=1;" parent="1" vertex="1">
                    <mxGeometry x="480" y="595" width="210" height="155" as="geometry"/>
                </mxCell>
                <mxCell id="23" value="" style="rounded=0;whiteSpace=wrap;html=1;" parent="1" vertex="1">
                    <mxGeometry x="480" y="699" width="210" height="50" as="geometry"/>
                </mxCell>
                <mxCell id="24" value="function&amp;nbsp; Foo()" style="text;html=1;strokeColor=none;fillColor=none;align=center;verticalAlign=middle;whiteSpace=wrap;rounded=0;" parent="1" vertex="1">
                    <mxGeometry x="533.75" y="610" width="102.5" height="20" as="geometry"/>
                </mxCell>
                <mxCell id="25" value="" style="rounded=0;whiteSpace=wrap;html=1;" parent="1" vertex="1">
                    <mxGeometry x="480" y="648.5" width="210" height="50" as="geometry"/>
                </mxCell>
                <mxCell id="26" value="" style="rounded=0;whiteSpace=wrap;html=1;" parent="1" vertex="1">
                    <mxGeometry x="860" y="144" width="210" height="155" as="geometry"/>
                </mxCell>
                <mxCell id="27" value="" style="rounded=0;whiteSpace=wrap;html=1;" parent="1" vertex="1">
                    <mxGeometry x="860" y="248" width="210" height="50" as="geometry"/>
                </mxCell>
                <mxCell id="28" value="Function的prototype对象" style="text;html=1;strokeColor=none;fillColor=none;align=center;verticalAlign=middle;whiteSpace=wrap;rounded=0;" parent="1" vertex="1">
                    <mxGeometry x="895.93" y="160" width="138.13" height="20" as="geometry"/>
                </mxCell>
                <mxCell id="29" value="" style="rounded=0;whiteSpace=wrap;html=1;" parent="1" vertex="1">
                    <mxGeometry x="860" y="197.5" width="210" height="50" as="geometry"/>
                </mxCell>
                <mxCell id="30" value="" style="rounded=0;whiteSpace=wrap;html=1;" parent="1" vertex="1">
                    <mxGeometry x="860" y="358" width="210" height="155" as="geometry"/>
                </mxCell>
                <mxCell id="31" value="__proto__" style="rounded=0;whiteSpace=wrap;html=1;" parent="1" vertex="1">
                    <mxGeometry x="860" y="462" width="210" height="50" as="geometry"/>
                </mxCell>
                <mxCell id="32" value="Function的prototype对象" style="text;html=1;strokeColor=none;fillColor=none;align=center;verticalAlign=middle;whiteSpace=wrap;rounded=0;" parent="1" vertex="1">
                    <mxGeometry x="895.93" y="374" width="138.13" height="20" as="geometry"/>
                </mxCell>
                <mxCell id="33" value="constructor" style="rounded=0;whiteSpace=wrap;html=1;" parent="1" vertex="1">
                    <mxGeometry x="860" y="411.5" width="210" height="50" as="geometry"/>
                </mxCell>
                <mxCell id="34" value="" style="rounded=0;whiteSpace=wrap;html=1;" parent="1" vertex="1">
                    <mxGeometry x="860" y="360" width="210" height="155" as="geometry"/>
                </mxCell>
                <mxCell id="35" value="" style="rounded=0;whiteSpace=wrap;html=1;" parent="1" vertex="1">
                    <mxGeometry x="860" y="464" width="210" height="50" as="geometry"/>
                </mxCell>
                <mxCell id="36" value="Object的prototype对象" style="text;html=1;strokeColor=none;fillColor=none;align=center;verticalAlign=middle;whiteSpace=wrap;rounded=0;" parent="1" vertex="1">
                    <mxGeometry x="895.93" y="376" width="138.13" height="20" as="geometry"/>
                </mxCell>
                <mxCell id="37" value="" style="rounded=0;whiteSpace=wrap;html=1;" parent="1" vertex="1">
                    <mxGeometry x="860" y="413.5" width="210" height="50" as="geometry"/>
                </mxCell>
                <mxCell id="38" value="" style="rounded=0;whiteSpace=wrap;html=1;" parent="1" vertex="1">
                    <mxGeometry x="860" y="597" width="210" height="155" as="geometry"/>
                </mxCell>
                <mxCell id="39" value="__proto__" style="rounded=0;whiteSpace=wrap;html=1;" parent="1" vertex="1">
                    <mxGeometry x="860" y="701" width="210" height="50" as="geometry"/>
                </mxCell>
                <mxCell id="40" value="Function的prototype对象" style="text;html=1;strokeColor=none;fillColor=none;align=center;verticalAlign=middle;whiteSpace=wrap;rounded=0;" parent="1" vertex="1">
                    <mxGeometry x="895.93" y="613" width="138.13" height="20" as="geometry"/>
                </mxCell>
                <mxCell id="41" value="constructor" style="rounded=0;whiteSpace=wrap;html=1;" parent="1" vertex="1">
                    <mxGeometry x="860" y="650.5" width="210" height="50" as="geometry"/>
                </mxCell>
                <mxCell id="42" value="" style="rounded=0;whiteSpace=wrap;html=1;" parent="1" vertex="1">
                    <mxGeometry x="860" y="599" width="210" height="155" as="geometry"/>
                </mxCell>
                <mxCell id="124" value="" style="edgeStyle=orthogonalEdgeStyle;rounded=0;orthogonalLoop=1;jettySize=auto;html=1;" edge="1" parent="1" source="43" target="45">
                    <mxGeometry relative="1" as="geometry"/>
                </mxCell>
                <mxCell id="43" value="" style="rounded=0;whiteSpace=wrap;html=1;" parent="1" vertex="1">
                    <mxGeometry x="860" y="703" width="210" height="50" as="geometry"/>
                </mxCell>
                <mxCell id="44" value="Foo的prototype对象" style="text;html=1;strokeColor=none;fillColor=none;align=center;verticalAlign=middle;whiteSpace=wrap;rounded=0;" parent="1" vertex="1">
                    <mxGeometry x="895.93" y="615" width="138.13" height="20" as="geometry"/>
                </mxCell>
                <mxCell id="45" value="" style="rounded=0;whiteSpace=wrap;html=1;" parent="1" vertex="1">
                    <mxGeometry x="860" y="652.5" width="210" height="50" as="geometry"/>
                </mxCell>
                <mxCell id="71" value="" style="endArrow=classic;html=1;entryX=0;entryY=0.5;entryDx=0;entryDy=0;" parent="1" target="29" edge="1">
                    <mxGeometry width="50" height="50" relative="1" as="geometry">
                        <mxPoint x="640" y="223" as="sourcePoint"/>
                        <mxPoint x="690" y="190" as="targetPoint"/>
                    </mxGeometry>
                </mxCell>
                <mxCell id="75" value="" style="endArrow=classic;html=1;entryX=0;entryY=0.5;entryDx=0;entryDy=0;" parent="1" target="37" edge="1">
                    <mxGeometry width="50" height="50" relative="1" as="geometry">
                        <mxPoint x="640" y="439" as="sourcePoint"/>
                        <mxPoint x="690" y="400" as="targetPoint"/>
                    </mxGeometry>
                </mxCell>
                <mxCell id="76" value="" style="endArrow=classic;html=1;entryX=0;entryY=0.5;entryDx=0;entryDy=0;" parent="1" target="45" edge="1">
                    <mxGeometry width="50" height="50" relative="1" as="geometry">
                        <mxPoint x="640" y="678" as="sourcePoint"/>
                        <mxPoint x="690" y="630" as="targetPoint"/>
                    </mxGeometry>
                </mxCell>
                <mxCell id="77" value="" style="endArrow=classic;html=1;" parent="1" edge="1">
                    <mxGeometry width="50" height="50" relative="1" as="geometry">
                        <mxPoint x="640" y="280" as="sourcePoint"/>
                        <mxPoint x="850" y="230" as="targetPoint"/>
                    </mxGeometry>
                </mxCell>
                <mxCell id="78" value="" style="endArrow=classic;html=1;" parent="1" edge="1">
                    <mxGeometry width="50" height="50" relative="1" as="geometry">
                        <mxPoint x="640" y="490" as="sourcePoint"/>
                        <mxPoint x="850" y="230" as="targetPoint"/>
                    </mxGeometry>
                </mxCell>
                <mxCell id="81" value="" style="endArrow=classic;html=1;" edge="1" parent="1">
                    <mxGeometry width="50" height="50" relative="1" as="geometry">
                        <mxPoint x="640" y="730" as="sourcePoint"/>
                        <mxPoint x="840" y="250" as="targetPoint"/>
                    </mxGeometry>
                </mxCell>
                <mxCell id="83" value="" style="curved=1;endArrow=classic;html=1;entryX=1;entryY=0.5;entryDx=0;entryDy=0;" edge="1" parent="1" target="37">
                    <mxGeometry width="50" height="50" relative="1" as="geometry">
                        <mxPoint x="1050" y="270" as="sourcePoint"/>
                        <mxPoint x="1080" y="440" as="targetPoint"/>
                        <Array as="points">
                            <mxPoint x="1100" y="270"/>
                            <mxPoint x="1120" y="240"/>
                            <mxPoint x="1050" y="220"/>
                            <mxPoint x="1160" y="360"/>
                        </Array>
                    </mxGeometry>
                </mxCell>
                <mxCell id="85" value="" style="curved=1;endArrow=classic;html=1;" edge="1" parent="1">
                    <mxGeometry width="50" height="50" relative="1" as="geometry">
                        <mxPoint x="1030" y="720" as="sourcePoint"/>
                        <mxPoint x="1080" y="440" as="targetPoint"/>
                        <Array as="points">
                            <mxPoint x="1080" y="720"/>
                            <mxPoint x="1130" y="690"/>
                            <mxPoint x="1160" y="670"/>
                            <mxPoint x="1150" y="620"/>
                            <mxPoint x="1030" y="670"/>
                            <mxPoint x="1170" y="570"/>
                        </Array>
                    </mxGeometry>
                </mxCell>
                <mxCell id="89" value="" style="curved=1;endArrow=classic;html=1;" edge="1" parent="1">
                    <mxGeometry width="50" height="50" relative="1" as="geometry">
                        <mxPoint x="260" y="360" as="sourcePoint"/>
                        <mxPoint x="1080" y="410" as="targetPoint"/>
                        <Array as="points">
                            <mxPoint x="310" y="360"/>
                            <mxPoint x="390" y="360"/>
                            <mxPoint x="440" y="340"/>
                            <mxPoint x="260" y="310"/>
                            <mxPoint x="1000" y="330"/>
                            <mxPoint x="1090" y="340"/>
                        </Array>
                    </mxGeometry>
                </mxCell>
                <mxCell id="90" value="" style="curved=1;endArrow=classic;html=1;" edge="1" parent="1">
                    <mxGeometry width="50" height="50" relative="1" as="geometry">
                        <mxPoint x="250" y="580" as="sourcePoint"/>
                        <mxPoint x="1070" y="630" as="targetPoint"/>
                        <Array as="points">
                            <mxPoint x="300" y="580"/>
                            <mxPoint x="380" y="580"/>
                            <mxPoint x="430" y="560"/>
                            <mxPoint x="250" y="530"/>
                            <mxPoint x="990" y="550"/>
                            <mxPoint x="1080" y="560"/>
                            <mxPoint x="1100" y="590"/>
                        </Array>
                    </mxGeometry>
                </mxCell>
                <mxCell id="91" value="" style="endArrow=none;html=1;entryX=0.5;entryY=0;entryDx=0;entryDy=0;exitX=0.5;exitY=1;exitDx=0;exitDy=0;" edge="1" parent="1" source="3" target="3">
                    <mxGeometry width="50" height="50" relative="1" as="geometry">
                        <mxPoint x="195" y="380" as="sourcePoint"/>
                        <mxPoint x="260" y="330" as="targetPoint"/>
                    </mxGeometry>
                </mxCell>
                <mxCell id="94" value="__proto__" style="text;html=1;strokeColor=none;fillColor=none;align=center;verticalAlign=middle;whiteSpace=wrap;rounded=0;" vertex="1" parent="1">
                    <mxGeometry x="120" y="350" width="40" height="20" as="geometry"/>
                </mxCell>
                <mxCell id="96" value="" style="endArrow=none;html=1;exitX=0.5;exitY=1;exitDx=0;exitDy=0;" edge="1" parent="1" source="8" target="7">
                    <mxGeometry width="50" height="50" relative="1" as="geometry">
                        <mxPoint x="170" y="590" as="sourcePoint"/>
                        <mxPoint x="220" y="540" as="targetPoint"/>
                        <Array as="points"/>
                    </mxGeometry>
                </mxCell>
                <mxCell id="97" value="__proto__" style="text;html=1;strokeColor=none;fillColor=none;align=center;verticalAlign=middle;whiteSpace=wrap;rounded=0;" vertex="1" parent="1">
                    <mxGeometry x="127.5" y="560" width="40" height="20" as="geometry"/>
                </mxCell>
                <mxCell id="98" value="" style="endArrow=none;html=1;entryX=0.5;entryY=0;entryDx=0;entryDy=0;" edge="1" parent="1" target="8">
                    <mxGeometry width="50" height="50" relative="1" as="geometry">
                        <mxPoint x="195" y="590" as="sourcePoint"/>
                        <mxPoint x="230" y="540" as="targetPoint"/>
                        <Array as="points">
                            <mxPoint x="195" y="560"/>
                        </Array>
                    </mxGeometry>
                </mxCell>
                <mxCell id="99" value="&lt;span&gt;prototype&lt;/span&gt;" style="text;html=1;strokeColor=none;fillColor=none;align=center;verticalAlign=middle;whiteSpace=wrap;rounded=0;" vertex="1" parent="1">
                    <mxGeometry x="510" y="214" width="40" height="20" as="geometry"/>
                </mxCell>
                <mxCell id="100" value="" style="endArrow=none;html=1;exitX=0.5;exitY=0;exitDx=0;exitDy=0;entryX=0.5;entryY=0;entryDx=0;entryDy=0;" edge="1" parent="1" source="12" target="17">
                    <mxGeometry width="50" height="50" relative="1" as="geometry">
                        <mxPoint x="570" y="250" as="sourcePoint"/>
                        <mxPoint x="620" y="200" as="targetPoint"/>
                    </mxGeometry>
                </mxCell>
                <mxCell id="101" value="&lt;span&gt;__proto__&lt;/span&gt;" style="text;html=1;strokeColor=none;fillColor=none;align=center;verticalAlign=middle;whiteSpace=wrap;rounded=0;" vertex="1" parent="1">
                    <mxGeometry x="510" y="265" width="40" height="20" as="geometry"/>
                </mxCell>
                <mxCell id="102" value="" style="endArrow=none;html=1;exitX=0.5;exitY=1;exitDx=0;exitDy=0;entryX=0.5;entryY=0;entryDx=0;entryDy=0;" edge="1" parent="1" source="11" target="12">
                    <mxGeometry width="50" height="50" relative="1" as="geometry">
                        <mxPoint x="570" y="300" as="sourcePoint"/>
                        <mxPoint x="620" y="250" as="targetPoint"/>
                    </mxGeometry>
                </mxCell>
                <mxCell id="103" value="&lt;span&gt;prototype&lt;/span&gt;" style="text;html=1;strokeColor=none;fillColor=none;align=center;verticalAlign=middle;whiteSpace=wrap;rounded=0;" vertex="1" parent="1">
                    <mxGeometry x="510" y="427" width="40" height="20" as="geometry"/>
                </mxCell>
                <mxCell id="104" value="" style="endArrow=none;html=1;exitX=0.5;exitY=1;exitDx=0;exitDy=0;entryX=0.5;entryY=0;entryDx=0;entryDy=0;" edge="1" parent="1" source="21" target="21">
                    <mxGeometry width="50" height="50" relative="1" as="geometry">
                        <mxPoint x="570" y="460" as="sourcePoint"/>
                        <mxPoint x="620" y="410" as="targetPoint"/>
                    </mxGeometry>
                </mxCell>
                <mxCell id="105" value="&lt;span&gt;__proto__&lt;/span&gt;" style="text;html=1;strokeColor=none;fillColor=none;align=center;verticalAlign=middle;whiteSpace=wrap;rounded=0;" vertex="1" parent="1">
                    <mxGeometry x="510" y="479" width="40" height="20" as="geometry"/>
                </mxCell>
                <mxCell id="106" value="" style="endArrow=none;html=1;exitX=0.5;exitY=1;exitDx=0;exitDy=0;entryX=0.5;entryY=1;entryDx=0;entryDy=0;" edge="1" parent="1" source="19" target="21">
                    <mxGeometry width="50" height="50" relative="1" as="geometry">
                        <mxPoint x="570" y="510" as="sourcePoint"/>
                        <mxPoint x="620" y="460" as="targetPoint"/>
                    </mxGeometry>
                </mxCell>
                <mxCell id="107" value="&lt;span&gt;prototype&lt;/span&gt;" style="text;html=1;strokeColor=none;fillColor=none;align=center;verticalAlign=middle;whiteSpace=wrap;rounded=0;" vertex="1" parent="1">
                    <mxGeometry x="510" y="663" width="40" height="20" as="geometry"/>
                </mxCell>
                <mxCell id="108" value="" style="endArrow=none;html=1;exitX=0.5;exitY=0;exitDx=0;exitDy=0;entryX=0.5;entryY=0;entryDx=0;entryDy=0;" edge="1" parent="1" source="23" target="25">
                    <mxGeometry width="50" height="50" relative="1" as="geometry">
                        <mxPoint x="570" y="700" as="sourcePoint"/>
                        <mxPoint x="620" y="650" as="targetPoint"/>
                    </mxGeometry>
                </mxCell>
                <mxCell id="109" value="&lt;span&gt;__proto__&lt;/span&gt;" style="text;html=1;strokeColor=none;fillColor=none;align=center;verticalAlign=middle;whiteSpace=wrap;rounded=0;" vertex="1" parent="1">
                    <mxGeometry x="510" y="714" width="40" height="20" as="geometry"/>
                </mxCell>
                <mxCell id="110" value="" style="endArrow=none;html=1;exitX=0.5;exitY=1;exitDx=0;exitDy=0;entryX=0.5;entryY=0;entryDx=0;entryDy=0;" edge="1" parent="1" source="23" target="23">
                    <mxGeometry width="50" height="50" relative="1" as="geometry">
                        <mxPoint x="570" y="750" as="sourcePoint"/>
                        <mxPoint x="620" y="700" as="targetPoint"/>
                    </mxGeometry>
                </mxCell>
                <mxCell id="111" value="&lt;span&gt;constructor&lt;/span&gt;" style="text;html=1;strokeColor=none;fillColor=none;align=center;verticalAlign=middle;whiteSpace=wrap;rounded=0;" vertex="1" parent="1">
                    <mxGeometry x="896" y="212" width="40" height="20" as="geometry"/>
                </mxCell>
                <mxCell id="112" value="&lt;span&gt;__proto__&lt;/span&gt;" style="text;html=1;strokeColor=none;fillColor=none;align=center;verticalAlign=middle;whiteSpace=wrap;rounded=0;" vertex="1" parent="1">
                    <mxGeometry x="890" y="263" width="40" height="20" as="geometry"/>
                </mxCell>
                <mxCell id="114" value="" style="endArrow=none;html=1;exitX=0.5;exitY=0;exitDx=0;exitDy=0;entryX=0.5;entryY=0;entryDx=0;entryDy=0;" edge="1" parent="1" source="27" target="29">
                    <mxGeometry width="50" height="50" relative="1" as="geometry">
                        <mxPoint x="970" y="240" as="sourcePoint"/>
                        <mxPoint x="1010" y="190" as="targetPoint"/>
                    </mxGeometry>
                </mxCell>
                <mxCell id="115" value="" style="endArrow=none;html=1;entryX=0.5;entryY=1;entryDx=0;entryDy=0;" edge="1" parent="1" target="29">
                    <mxGeometry width="50" height="50" relative="1" as="geometry">
                        <mxPoint x="965" y="300" as="sourcePoint"/>
                        <mxPoint x="1000" y="250" as="targetPoint"/>
                    </mxGeometry>
                </mxCell>
                <mxCell id="116" value="&lt;span&gt;constructor&lt;/span&gt;" style="text;html=1;strokeColor=none;fillColor=none;align=center;verticalAlign=middle;whiteSpace=wrap;rounded=0;" vertex="1" parent="1">
                    <mxGeometry x="890" y="429" width="40" height="20" as="geometry"/>
                </mxCell>
                <mxCell id="117" value="&lt;span&gt;__proto__&lt;/span&gt;" style="text;html=1;strokeColor=none;fillColor=none;align=center;verticalAlign=middle;whiteSpace=wrap;rounded=0;" vertex="1" parent="1">
                    <mxGeometry x="890" y="479" width="40" height="20" as="geometry"/>
                </mxCell>
                <mxCell id="118" value="" style="endArrow=none;html=1;entryX=0.5;entryY=0;entryDx=0;entryDy=0;" edge="1" parent="1" target="37">
                    <mxGeometry width="50" height="50" relative="1" as="geometry">
                        <mxPoint x="965" y="460" as="sourcePoint"/>
                        <mxPoint x="1010" y="410" as="targetPoint"/>
                    </mxGeometry>
                </mxCell>
                <mxCell id="119" value="" style="endArrow=none;html=1;exitX=0.5;exitY=1;exitDx=0;exitDy=0;entryX=0.5;entryY=0;entryDx=0;entryDy=0;" edge="1" parent="1" source="35" target="35">
                    <mxGeometry width="50" height="50" relative="1" as="geometry">
                        <mxPoint x="960" y="510" as="sourcePoint"/>
                        <mxPoint x="1010" y="460" as="targetPoint"/>
                    </mxGeometry>
                </mxCell>
                <mxCell id="120" value="&lt;span&gt;constructor&lt;/span&gt;" style="text;html=1;strokeColor=none;fillColor=none;align=center;verticalAlign=middle;whiteSpace=wrap;rounded=0;" vertex="1" parent="1">
                    <mxGeometry x="880" y="666" width="40" height="20" as="geometry"/>
                </mxCell>
                <mxCell id="121" value="&lt;span&gt;__proto__&lt;/span&gt;" style="text;html=1;strokeColor=none;fillColor=none;align=center;verticalAlign=middle;whiteSpace=wrap;rounded=0;" vertex="1" parent="1">
                    <mxGeometry x="880" y="714" width="40" height="20" as="geometry"/>
                </mxCell>
                <mxCell id="125" value="" style="endArrow=none;html=1;entryX=0.5;entryY=0;entryDx=0;entryDy=0;" edge="1" parent="1" target="45">
                    <mxGeometry width="50" height="50" relative="1" as="geometry">
                        <mxPoint x="965" y="700" as="sourcePoint"/>
                        <mxPoint x="1010" y="650" as="targetPoint"/>
                    </mxGeometry>
                </mxCell>
                <mxCell id="126" value="" style="endArrow=none;html=1;entryX=0.5;entryY=1;entryDx=0;entryDy=0;exitX=0.5;exitY=1;exitDx=0;exitDy=0;" edge="1" parent="1" source="43" target="45">
                    <mxGeometry width="50" height="50" relative="1" as="geometry">
                        <mxPoint x="960" y="750" as="sourcePoint"/>
                        <mxPoint x="990" y="700" as="targetPoint"/>
                    </mxGeometry>
                </mxCell>
            </root>
        </mxGraphModel>
    </diagram>
</mxfile>